<svg xmlns="http://www.w3.org/2000/svg" viewBox="0 0 3927 1437" width="981" height="359">
<g transform="translate(60,1119) scale(1,-1)" fill="#0E0F17">
<path transform="translate(0,0)" d="M25 997H277Q329 997 375.0 977.0Q421 957 455.5 922.5Q490 888 510.0 842.0Q530 796 530 744V252Q530 200 510.0 154.0Q490 108 455.5 74.0Q421 40 375.0 20.0Q329 0 277 0H25ZM201 821V176H277Q309 176 331.5 198.5Q354 221 354 252V744Q354 776 331.5 798.5Q309 821 277 821Z"/>
<path transform="translate(530,0)" d="M25 801H201V0H25ZM111 1059H115Q133 1059 148.5 1052.0Q164 1045 175.5 1033.5Q187 1022 194.0 1006.5Q201 991 201 973Q201 955 194.0 939.5Q187 924 175.5 912.5Q164 901 148.5 894.0Q133 887 115 887H111Q93 887 77.5 894.0Q62 901 50.0 912.5Q38 924 31.5 939.5Q25 955 25 973Q25 991 31.5 1006.5Q38 1022 50.0 1033.5Q62 1045 77.5 1052.0Q93 1059 111 1059Z"/>
<path transform="translate(731,0)" d="M25 324V548Q25 600 45.0 646.0Q65 692 99.5 726.5Q134 761 180.0 781.0Q226 801 277 801Q297 801 316.5 797.5Q336 794 354 789V801H530V-6Q530 -58 509.5 -104.0Q489 -150 454.5 -184.0Q420 -218 374.0 -238.0Q328 -258 277 -258Q225 -258 179.0 -238.0Q133 -218 99.0 -183.5Q65 -149 45.0 -103.0Q25 -57 25 -6H201Q201 -37 223.5 -59.5Q246 -82 277 -82Q309 -82 331.5 -59.5Q354 -37 354 -6V84Q318 72 277 72Q226 72 180.0 92.0Q134 112 99.5 146.0Q65 180 45.0 226.0Q25 272 25 324ZM354 548Q354 580 331.5 602.5Q309 625 277 625Q246 625 223.5 602.5Q201 580 201 548V324Q201 293 223.5 270.5Q246 248 277 248Q309 248 331.5 270.5Q354 293 354 324Z"/>
<path transform="translate(1261,0)" d="M25 801H201V0H25ZM111 1059H115Q133 1059 148.5 1052.0Q164 1045 175.5 1033.5Q187 1022 194.0 1006.5Q201 991 201 973Q201 955 194.0 939.5Q187 924 175.5 912.5Q164 901 148.5 894.0Q133 887 115 887H111Q93 887 77.5 894.0Q62 901 50.0 912.5Q38 924 31.5 939.5Q25 955 25 973Q25 991 31.5 1006.5Q38 1022 50.0 1033.5Q62 1045 77.5 1052.0Q93 1059 111 1059Z"/>
<path transform="translate(1462,0)" d="M201 0H25V326V502V997H201H277Q297 997 316.5 993.5Q336 990 354 985Q392 973 424.5 949.5Q457 926 480.5 894.5Q504 863 517.0 824.5Q530 786 530 744V579Q530 531 514.0 489.5Q498 448 469 415Q498 382 514.0 340.0Q530 298 530 251V0H354V176V251Q354 282 332.0 304.0Q310 326 279 326H277H201V176ZM279 502Q310 503 332.0 525.0Q354 547 354 579V744Q354 776 331.5 798.5Q309 821 277 821H201V502Z"/>
<path transform="translate(1992,0)" d="M25 801H201V0H25ZM111 1059H115Q133 1059 148.5 1052.0Q164 1045 175.5 1033.5Q187 1022 194.0 1006.5Q201 991 201 973Q201 955 194.0 939.5Q187 924 175.5 912.5Q164 901 148.5 894.0Q133 887 115 887H111Q93 887 77.5 894.0Q62 901 50.0 912.5Q38 924 31.5 939.5Q25 955 25 973Q25 991 31.5 1006.5Q38 1022 50.0 1033.5Q62 1045 77.5 1052.0Q93 1059 111 1059Z"/>
<path transform="translate(2193,0)" d="M354 548Q354 580 331.5 602.5Q309 625 278 625Q246 625 223.5 602.5Q201 580 201 548V0H25V548Q25 590 38.0 628.5Q51 667 74.5 698.5Q98 730 130.5 753.5Q163 777 201 789Q219 794 238.5 797.5Q258 801 278 801Q298 801 317.0 797.5Q336 794 354 789Q392 777 424.5 753.5Q457 730 480.5 698.5Q504 667 517.0 628.5Q530 590 530 548V0H354Z"/>
<path transform="translate(2723,0)" d="M25 324V548Q25 600 45.0 646.0Q65 692 99.5 726.5Q134 761 180.0 781.0Q226 801 277 801Q297 801 316.5 797.5Q336 794 354 789V801H530V-6Q530 -58 509.5 -104.0Q489 -150 454.5 -184.0Q420 -218 374.0 -238.0Q328 -258 277 -258Q225 -258 179.0 -238.0Q133 -218 99.0 -183.5Q65 -149 45.0 -103.0Q25 -57 25 -6H201Q201 -37 223.5 -59.5Q246 -82 277 -82Q309 -82 331.5 -59.5Q354 -37 354 -6V84Q318 72 277 72Q226 72 180.0 92.0Q134 112 99.5 146.0Q65 180 45.0 226.0Q25 272 25 324ZM354 548Q354 580 331.5 602.5Q309 625 277 625Q246 625 223.5 602.5Q201 580 201 548V324Q201 293 223.5 270.5Q246 248 277 248Q309 248 331.5 270.5Q354 293 354 324Z"/>
<path transform="translate(3253,0)" d="M277 801Q329 801 375.0 781.0Q421 761 455.0 726.5Q489 692 509.0 646.0Q529 600 529 548V253Q529 201 509.0 155.0Q489 109 455.0 74.5Q421 40 375.0 20.0Q329 0 277 0Q225 0 179.0 20.0Q133 40 99.0 74.5Q65 109 45.0 155.0Q25 201 25 253V548Q25 600 45.0 646.0Q65 692 99.0 726.5Q133 761 179.0 781.0Q225 801 277 801ZM277 625Q245 625 222.5 602.5Q200 580 200 548V253Q200 221 222.5 198.5Q245 176 277 176Q309 176 331.0 198.5Q353 221 353 253V548Q353 580 331.0 602.5Q309 625 277 625Z"/>
</g></svg>